<svg width="184" height="47" viewBox="0 0 184 47" fill="none" xmlns="http://www.w3.org/2000/svg">
<rect width="184" height="47" fill="#151515"/>
<path d="M68.7727 20.2727C68.7045 19.697 68.428 19.25 67.9432 18.9318C67.4583 18.6136 66.8636 18.4545 66.1591 18.4545C65.6439 18.4545 65.1932 18.5379 64.8068 18.7045C64.4242 18.8712 64.125 19.1004 63.9091 19.392C63.697 19.6837 63.5909 20.0152 63.5909 20.3864C63.5909 20.697 63.6648 20.964 63.8125 21.1875C63.964 21.4072 64.1572 21.5909 64.392 21.7386C64.6269 21.8826 64.8731 22.0019 65.1307 22.0966C65.3883 22.1875 65.625 22.2614 65.8409 22.3182L67.0227 22.6364C67.3258 22.7159 67.6629 22.8258 68.0341 22.9659C68.4091 23.1061 68.767 23.2973 69.108 23.5398C69.4527 23.7784 69.7367 24.0852 69.9602 24.4602C70.1837 24.8352 70.2955 25.2955 70.2955 25.8409C70.2955 26.4697 70.1307 27.0379 69.8011 27.5455C69.4754 28.053 68.9981 28.4564 68.3693 28.7557C67.7443 29.0549 66.9848 29.2045 66.0909 29.2045C65.2576 29.2045 64.536 29.0701 63.9261 28.8011C63.3201 28.5322 62.8428 28.1572 62.4943 27.6761C62.1496 27.1951 61.9545 26.6364 61.9091 26H63.3636C63.4015 26.4394 63.5492 26.803 63.8068 27.0909C64.0682 27.375 64.3977 27.5871 64.7955 27.7273C65.197 27.8636 65.6288 27.9318 66.0909 27.9318C66.6288 27.9318 67.1117 27.8447 67.5398 27.6705C67.9678 27.4924 68.3068 27.2462 68.5568 26.9318C68.8068 26.6136 68.9318 26.2424 68.9318 25.8182C68.9318 25.4318 68.8239 25.1174 68.608 24.875C68.392 24.6326 68.108 24.4356 67.7557 24.2841C67.4034 24.1326 67.0227 24 66.6136 23.8864L65.1818 23.4773C64.2727 23.2159 63.553 22.8428 63.0227 22.358C62.4924 21.8731 62.2273 21.2386 62.2273 20.4545C62.2273 19.803 62.4034 19.2348 62.7557 18.75C63.1117 18.2614 63.589 17.8826 64.1875 17.6136C64.7898 17.3409 65.4621 17.2045 66.2045 17.2045C66.9545 17.2045 67.6212 17.339 68.2045 17.608C68.7879 17.8731 69.25 18.2367 69.5909 18.6989C69.9356 19.161 70.1174 19.6856 70.1364 20.2727H68.7727ZM80.2486 17.3636H81.6577V25.0682C81.6577 25.8636 81.4702 26.5739 81.0952 27.1989C80.724 27.8201 80.1993 28.3106 79.5213 28.6705C78.8433 29.0265 78.0478 29.2045 77.1349 29.2045C76.2221 29.2045 75.4266 29.0265 74.7486 28.6705C74.0705 28.3106 73.544 27.8201 73.169 27.1989C72.7978 26.5739 72.6122 25.8636 72.6122 25.0682V17.3636H74.0213V24.9545C74.0213 25.5227 74.1463 26.0284 74.3963 26.4716C74.6463 26.911 75.0024 27.2576 75.4645 27.5114C75.9304 27.7614 76.4872 27.8864 77.1349 27.8864C77.7827 27.8864 78.3395 27.7614 78.8054 27.5114C79.2713 27.2576 79.6274 26.911 79.8736 26.4716C80.1236 26.0284 80.2486 25.5227 80.2486 24.9545V17.3636ZM84.4716 29V17.3636H88.5398C89.3504 17.3636 90.0189 17.5038 90.5455 17.7841C91.072 18.0606 91.464 18.4337 91.7216 18.9034C91.9792 19.3693 92.108 19.8864 92.108 20.4545C92.108 20.9545 92.0189 21.3674 91.8409 21.6932C91.6667 22.0189 91.4356 22.2765 91.1477 22.4659C90.8636 22.6553 90.5549 22.7955 90.2216 22.8864V23C90.5777 23.0227 90.9356 23.1477 91.2955 23.375C91.6553 23.6023 91.9564 23.928 92.1989 24.3523C92.4413 24.7765 92.5625 25.2955 92.5625 25.9091C92.5625 26.4924 92.4299 27.017 92.1648 27.483C91.8996 27.9489 91.4811 28.3182 90.9091 28.5909C90.3371 28.8636 89.5928 29 88.6761 29H84.4716ZM85.8807 27.75H88.6761C89.5966 27.75 90.25 27.572 90.6364 27.2159C91.0265 26.8561 91.2216 26.4205 91.2216 25.9091C91.2216 25.5152 91.1212 25.1515 90.9205 24.8182C90.7197 24.4811 90.4337 24.2121 90.0625 24.0114C89.6913 23.8068 89.2519 23.7045 88.7443 23.7045H85.8807V27.75ZM85.8807 22.4773H88.4943C88.9186 22.4773 89.3011 22.3939 89.642 22.2273C89.9867 22.0606 90.2595 21.8258 90.4602 21.5227C90.6648 21.2197 90.767 20.8636 90.767 20.4545C90.767 19.9432 90.589 19.5095 90.233 19.1534C89.8769 18.7936 89.3125 18.6136 88.5398 18.6136H85.8807V22.4773ZM94.8778 17.3636H96.5597L100.514 27.0227H100.651L104.605 17.3636H106.287V29H104.969V20.1591H104.855L101.219 29H99.946L96.3097 20.1591H96.196V29H94.8778V17.3636ZM110.521 17.3636V29H109.112V17.3636H110.521ZM112.71 18.6136V17.3636H121.438V18.6136H117.778V29H116.369V18.6136H112.71Z" fill="white"/>
</svg>
