<svg width="80" height="29" viewBox="0 0 80 29" fill="none" xmlns="http://www.w3.org/2000/svg">
<rect width="80" height="29" fill="#0066FF"/>
<path d="M21.7273 20V11.2727H23.0227V12.6364H23.1364C23.3182 12.1705 23.6117 11.8087 24.017 11.5511C24.4223 11.2898 24.9091 11.1591 25.4773 11.1591C26.053 11.1591 26.5322 11.2898 26.9148 11.5511C27.3011 11.8087 27.6023 12.1705 27.8182 12.6364H27.9091C28.1326 12.1856 28.4678 11.8277 28.9148 11.5625C29.3617 11.2936 29.8977 11.1591 30.5227 11.1591C31.303 11.1591 31.9413 11.4034 32.4375 11.892C32.9337 12.3769 33.1818 13.1326 33.1818 14.1591V20H31.8409V14.1591C31.8409 13.5152 31.6648 13.0549 31.3125 12.7784C30.9602 12.5019 30.5455 12.3636 30.0682 12.3636C29.4545 12.3636 28.9792 12.5492 28.642 12.9205C28.3049 13.2879 28.1364 13.7538 28.1364 14.3182V20H26.7727V14.0227C26.7727 13.5265 26.6117 13.1269 26.2898 12.8239C25.9678 12.517 25.553 12.3636 25.0455 12.3636C24.697 12.3636 24.3712 12.4564 24.0682 12.642C23.7689 12.8277 23.5265 13.0852 23.3409 13.4148C23.1591 13.7405 23.0682 14.1174 23.0682 14.5455V20H21.7273ZM39.179 20.1818C38.3911 20.1818 37.6998 19.9943 37.1051 19.6193C36.5142 19.2443 36.0521 18.7197 35.7188 18.0455C35.3892 17.3712 35.2244 16.5833 35.2244 15.6818C35.2244 14.7727 35.3892 13.9792 35.7188 13.3011C36.0521 12.6231 36.5142 12.0966 37.1051 11.7216C37.6998 11.3466 38.3911 11.1591 39.179 11.1591C39.9669 11.1591 40.6563 11.3466 41.2472 11.7216C41.8419 12.0966 42.304 12.6231 42.6335 13.3011C42.9669 13.9792 43.1335 14.7727 43.1335 15.6818C43.1335 16.5833 42.9669 17.3712 42.6335 18.0455C42.304 18.7197 41.8419 19.2443 41.2472 19.6193C40.6563 19.9943 39.9669 20.1818 39.179 20.1818ZM39.179 18.9773C39.7775 18.9773 40.2699 18.8239 40.6562 18.517C41.0426 18.2102 41.3286 17.8068 41.5142 17.3068C41.6998 16.8068 41.7926 16.2652 41.7926 15.6818C41.7926 15.0985 41.6998 14.5549 41.5142 14.0511C41.3286 13.5473 41.0426 13.1402 40.6562 12.8295C40.2699 12.5189 39.7775 12.3636 39.179 12.3636C38.5805 12.3636 38.0881 12.5189 37.7017 12.8295C37.3153 13.1402 37.0294 13.5473 36.8438 14.0511C36.6581 14.5549 36.5653 15.0985 36.5653 15.6818C36.5653 16.2652 36.6581 16.8068 36.8438 17.3068C37.0294 17.8068 37.3153 18.2102 37.7017 18.517C38.0881 18.8239 38.5805 18.9773 39.179 18.9773ZM45.1804 20V11.2727H46.4759V12.5909H46.5668C46.7259 12.1591 47.0137 11.8087 47.4304 11.5398C47.8471 11.2708 48.3168 11.1364 48.8395 11.1364C48.938 11.1364 49.0611 11.1383 49.2088 11.142C49.3565 11.1458 49.4683 11.1515 49.544 11.1591V12.5227C49.4986 12.5114 49.3944 12.4943 49.2315 12.4716C49.0724 12.4451 48.9039 12.4318 48.7259 12.4318C48.3016 12.4318 47.9228 12.5208 47.5895 12.6989C47.2599 12.8731 46.9986 13.1155 46.8054 13.4261C46.616 13.733 46.5213 14.0833 46.5213 14.4773V20H45.1804ZM54.527 20.1818C53.6861 20.1818 52.9607 19.9962 52.3509 19.625C51.7448 19.25 51.277 18.7273 50.9474 18.0568C50.6217 17.3826 50.4588 16.5985 50.4588 15.7045C50.4588 14.8106 50.6217 14.0227 50.9474 13.3409C51.277 12.6553 51.7353 12.1212 52.3224 11.7386C52.9134 11.3523 53.6027 11.1591 54.3906 11.1591C54.8452 11.1591 55.294 11.2348 55.7372 11.3864C56.1804 11.5379 56.5838 11.7841 56.9474 12.125C57.3111 12.4621 57.6009 12.9091 57.8168 13.4659C58.0327 14.0227 58.1406 14.7083 58.1406 15.5227V16.0909H51.4134V14.9318H56.777C56.777 14.4394 56.6785 14 56.4815 13.6136C56.2884 13.2273 56.0118 12.9223 55.652 12.6989C55.2959 12.4754 54.8755 12.3636 54.3906 12.3636C53.8565 12.3636 53.3944 12.4962 53.0043 12.7614C52.6179 13.0227 52.3205 13.3636 52.1122 13.7841C51.9039 14.2045 51.7997 14.6553 51.7997 15.1364V15.9091C51.7997 16.5682 51.9134 17.1269 52.1406 17.5852C52.3717 18.0398 52.6918 18.3864 53.1009 18.625C53.5099 18.8598 53.9853 18.9773 54.527 18.9773C54.8793 18.9773 55.1974 18.928 55.4815 18.8295C55.7694 18.7273 56.0175 18.5758 56.2259 18.375C56.4342 18.1705 56.5952 17.9167 56.7088 17.6136L58.0043 17.9773C57.8679 18.4167 57.6387 18.803 57.3168 19.1364C56.9948 19.4659 56.5971 19.7235 56.1236 19.9091C55.6501 20.0909 55.1179 20.1818 54.527 20.1818Z" fill="white"/>
</svg>
