<svg width="207" height="58" viewBox="0 0 207 58" fill="none" xmlns="http://www.w3.org/2000/svg">
<rect width="207" height="58" fill="#151515"/>
<path d="M88.4091 34.5V22.8636H92.4773C93.2879 22.8636 93.9564 23.0038 94.483 23.2841C95.0095 23.5606 95.4015 23.9337 95.6591 24.4034C95.9167 24.8693 96.0455 25.3864 96.0455 25.9545C96.0455 26.4545 95.9564 26.8674 95.7784 27.1932C95.6042 27.5189 95.3731 27.7765 95.0852 27.9659C94.8011 28.1553 94.4924 28.2955 94.1591 28.3864V28.5C94.5152 28.5227 94.8731 28.6477 95.233 28.875C95.5928 29.1023 95.8939 29.428 96.1364 29.8523C96.3788 30.2765 96.5 30.7955 96.5 31.4091C96.5 31.9924 96.3674 32.517 96.1023 32.983C95.8371 33.4489 95.4186 33.8182 94.8466 34.0909C94.2746 34.3636 93.5303 34.5 92.6136 34.5H88.4091ZM89.8182 33.25H92.6136C93.5341 33.25 94.1875 33.072 94.5739 32.7159C94.964 32.3561 95.1591 31.9205 95.1591 31.4091C95.1591 31.0152 95.0587 30.6515 94.858 30.3182C94.6572 29.9811 94.3712 29.7121 94 29.5114C93.6288 29.3068 93.1894 29.2045 92.6818 29.2045H89.8182V33.25ZM89.8182 27.9773H92.4318C92.8561 27.9773 93.2386 27.8939 93.5795 27.7273C93.9242 27.5606 94.197 27.3258 94.3977 27.0227C94.6023 26.7197 94.7045 26.3636 94.7045 25.9545C94.7045 25.4432 94.5265 25.0095 94.1705 24.6534C93.8144 24.2936 93.25 24.1136 92.4773 24.1136H89.8182V27.9773ZM106.452 22.8636H107.861V30.5682C107.861 31.3636 107.673 32.0739 107.298 32.6989C106.927 33.3201 106.402 33.8106 105.724 34.1705C105.046 34.5265 104.251 34.7045 103.338 34.7045C102.425 34.7045 101.63 34.5265 100.952 34.1705C100.274 33.8106 99.7472 33.3201 99.3722 32.6989C99.0009 32.0739 98.8153 31.3636 98.8153 30.5682V22.8636H100.224V30.4545C100.224 31.0227 100.349 31.5284 100.599 31.9716C100.849 32.411 101.205 32.7576 101.668 33.0114C102.134 33.2614 102.69 33.3864 103.338 33.3864C103.986 33.3864 104.543 33.2614 105.009 33.0114C105.474 32.7576 105.83 32.411 106.077 31.9716C106.327 31.5284 106.452 31.0227 106.452 30.4545V22.8636ZM109.675 22.8636H111.288L114.516 28.2955H114.652L117.879 22.8636H119.493L115.288 29.7045V34.5H113.879V29.7045L109.675 22.8636Z" fill="white"/>
</svg>
