<svg width="430" height="90" viewBox="0 0 430 90" fill="none" xmlns="http://www.w3.org/2000/svg">
<rect width="430" height="90" fill="#151515"/>
<path d="M114.776 58V31.8182H132.111V36.3821H120.311V42.6207H130.96V47.1847H120.311V58H114.776ZM141.37 31.8182V58H135.834V31.8182H141.37ZM167.823 31.8182V58H163.042L151.651 41.5213H151.46V58H145.924V31.8182H150.782L162.083 48.2841H162.313V31.8182H167.823ZM181.678 58H172.397V31.8182H181.755C184.388 31.8182 186.655 32.3423 188.556 33.3906C190.456 34.4304 191.918 35.9261 192.941 37.8778C193.972 39.8295 194.488 42.1648 194.488 44.8835C194.488 47.6108 193.972 49.9545 192.941 51.9148C191.918 53.875 190.448 55.3793 188.53 56.4276C186.621 57.4759 184.337 58 181.678 58ZM177.932 53.2571H181.448C183.084 53.2571 184.461 52.9673 185.577 52.3878C186.702 51.7997 187.546 50.892 188.108 49.6648C188.679 48.429 188.965 46.8352 188.965 44.8835C188.965 42.9489 188.679 41.3679 188.108 40.1406C187.546 38.9134 186.706 38.0099 185.59 37.4304C184.473 36.8509 183.097 36.5611 181.461 36.5611H177.932V53.2571ZM211.433 58H205.501L214.539 31.8182H221.673L230.699 58H224.767L218.208 37.8011H218.004L211.433 58ZM211.062 47.7088H225.074V52.0298H211.062V47.7088ZM265.283 40.9844H259.683C259.581 40.2599 259.372 39.6165 259.057 39.054C258.741 38.483 258.337 37.9972 257.842 37.5966C257.348 37.196 256.777 36.8892 256.129 36.6761C255.49 36.4631 254.795 36.3565 254.045 36.3565C252.69 36.3565 251.51 36.6932 250.504 37.3665C249.499 38.0312 248.719 39.0028 248.165 40.2812C247.611 41.5511 247.334 43.0937 247.334 44.9091C247.334 46.7756 247.611 48.3437 248.165 49.6136C248.727 50.8835 249.511 51.8423 250.517 52.4901C251.523 53.1378 252.686 53.4616 254.007 53.4616C254.749 53.4616 255.435 53.3636 256.065 53.1676C256.705 52.9716 257.271 52.6861 257.766 52.3111C258.26 51.9276 258.669 51.4631 258.993 50.9176C259.325 50.3722 259.555 49.75 259.683 49.0511L265.283 49.0767C265.138 50.2784 264.776 51.4375 264.196 52.554C263.625 53.6619 262.854 54.6548 261.882 55.5327C260.919 56.402 259.768 57.0923 258.43 57.6037C257.101 58.1065 255.597 58.358 253.918 58.358C251.582 58.358 249.494 57.8295 247.653 56.7727C245.821 55.7159 244.372 54.1861 243.307 52.1832C242.25 50.1804 241.722 47.7557 241.722 44.9091C241.722 42.054 242.259 39.625 243.332 37.6222C244.406 35.6193 245.864 34.0937 247.705 33.0455C249.545 31.9886 251.616 31.4602 253.918 31.4602C255.435 31.4602 256.841 31.6733 258.136 32.0994C259.44 32.5256 260.595 33.1477 261.601 33.9659C262.607 34.7756 263.425 35.7685 264.055 36.9446C264.695 38.1207 265.104 39.4673 265.283 40.9844ZM273.273 58H267.341L276.379 31.8182H283.513L292.538 58H286.607L280.048 37.8011H279.844L273.273 58ZM272.902 47.7088H286.913V52.0298H272.902V47.7088ZM295.69 58V31.8182H306.019C307.996 31.8182 309.684 32.1719 311.082 32.8793C312.488 33.5781 313.558 34.571 314.29 35.858C315.032 37.1364 315.403 38.6406 315.403 40.3707C315.403 42.1094 315.028 43.6051 314.278 44.858C313.528 46.1023 312.441 47.0568 311.018 47.7216C309.603 48.3864 307.89 48.7188 305.879 48.7188H298.962V44.2699H304.984C306.04 44.2699 306.918 44.125 307.617 43.8352C308.316 43.5455 308.836 43.1108 309.177 42.5312C309.526 41.9517 309.701 41.2315 309.701 40.3707C309.701 39.5014 309.526 38.7685 309.177 38.1719C308.836 37.5753 308.312 37.1236 307.604 36.8168C306.906 36.5014 306.023 36.3438 304.958 36.3438H301.225V58H295.69ZM309.829 46.0852L316.336 58H310.225L303.859 46.0852H309.829Z" fill="white"/>
</svg>
